<svg width="21" height="20" viewBox="0 0 21 20" fill="none" xmlns="http://www.w3.org/2000/svg">
<path d="M19.9669 17.5156C19.4162 17.964 17.2333 19.25 10.3705 19.25C3.49995 19.25 1.31976 17.9611 0.773197 17.5143C0.859123 17.0435 1.16471 16.043 2.26052 15.1061C3.50647 14.0408 5.87332 12.9726 10.3705 12.9726C14.8676 12.9726 17.2345 14.0408 18.4802 15.1061C19.5775 16.0444 19.882 17.0463 19.9669 17.5156ZM15.4594 3.40406C15.4594 6.6453 13.1927 9.25044 10.3705 9.25044C7.54594 9.25044 5.28154 6.64561 5.28154 3.40295C5.28154 2.58114 5.40801 2.06272 5.58704 1.72792C5.7535 1.41664 5.99258 1.21213 6.35203 1.06573C6.73646 0.909155 7.25294 0.822334 7.94688 0.782151C8.53097 0.74833 9.18804 0.749316 9.942 0.750449C10.0815 0.750658 10.2242 0.750872 10.3705 0.750872C10.5177 0.750872 10.6615 0.750653 10.8018 0.750439C11.5546 0.749292 12.2108 0.748292 12.7941 0.782017C13.4881 0.822134 14.0045 0.908897 14.3889 1.06545C14.7483 1.21182 14.9874 1.41634 15.1538 1.7278C15.3329 2.06283 15.4594 2.58163 15.4594 3.40406Z" stroke="#ACA9A7" stroke-width="1.5"/>
</svg>
