<svg width="21" height="22" viewBox="0 0 21 22" fill="none" xmlns="http://www.w3.org/2000/svg">
<path d="M6.33333 15.6667H14.3333M6.33333 11H14.3333M6.33333 6.33335H14.3333M5.26666 21H15.4C16.8934 21 17.6402 21 18.2106 20.7093C18.7124 20.4536 19.1204 20.0457 19.376 19.544C19.6666 18.9735 19.6666 18.2268 19.6666 16.7333V5.26666C19.6666 3.77318 19.6666 3.02645 19.376 2.45603C19.1204 1.95425 18.7124 1.54631 18.2106 1.29065C17.6402 1 16.8934 1 15.4 1H5.26666C3.7732 1 3.02645 1 2.45602 1.29065C1.95425 1.54631 1.54631 1.95425 1.29065 2.45603C1 3.02645 1 3.77318 1 5.26666V16.7333C1 18.2268 1 18.9735 1.29065 19.544C1.54631 20.0457 1.95425 20.4536 2.45602 20.7093C3.02645 21 3.77318 21 5.26666 21Z" stroke="#ACA9A7" stroke-width="1.5" stroke-linecap="round" stroke-linejoin="round"/>
</svg>
