<svg width="22" height="22" viewBox="0 0 22 22" fill="none" xmlns="http://www.w3.org/2000/svg">
<path d="M11.6409 1.53334C11.2701 1.22437 10.7315 1.22435 10.3607 1.53329L1.35992 9.03182C1.13187 9.22181 1 9.5033 1 9.80013V20C1 20.5523 1.44772 21 2 21H6.66556C7.21784 21 7.66556 20.5523 7.66556 20V15.3333C7.66556 14.781 8.11327 14.3333 8.66556 14.3333H13.3344C13.8867 14.3333 14.3344 14.781 14.3344 15.3333V20C14.3344 20.5523 14.7822 21 15.3344 21H20C20.5523 21 21 20.5523 21 20V9.80008C21 9.50328 20.8682 9.22181 20.6401 9.03182L11.6409 1.53334Z" stroke="#ACA9A7" stroke-width="1.5"/>
</svg>
