<svg width="27" height="26" viewBox="0 0 27 26" fill="none" xmlns="http://www.w3.org/2000/svg">
<path fill-rule="evenodd" clip-rule="evenodd" d="M1.02727 8.68634L1.6965 17.6094C1.92788 21.283 4.95266 24.1568 8.6333 24.2H18.3631C22.0444 24.1577 25.0702 21.2838 25.3016 17.6094L25.9709 8.68634C26.1433 6.72912 25.493 4.78849 24.1763 3.33021C22.8594 1.87193 20.995 1.02764 19.0305 1H7.96586C6.00157 1.02814 4.13764 1.87264 2.82127 3.33085C1.50492 4.78908 0.85493 6.72942 1.02727 8.68634Z" stroke="white" stroke-width="2" stroke-linecap="round" stroke-linejoin="round"/>
<path d="M18.8519 8.13852C18.8519 10.0513 17.8314 11.8188 16.175 12.7751C14.5185 13.7315 12.4776 13.7315 10.8211 12.7751C9.16464 11.8188 8.1442 10.0513 8.1442 8.13852" stroke="white" stroke-width="2" stroke-linecap="round" stroke-linejoin="round"/>
</svg>
