<svg width="20" height="20" viewBox="0 0 20 20" fill="none" xmlns="http://www.w3.org/2000/svg">
<path d="M4.00005 4.43173H13.5455" stroke="white" stroke-width="1.5" stroke-linecap="round"/>
<path d="M4.00005 9.99994H8.77277" stroke="white" stroke-width="1.5" stroke-linecap="round"/>
<path d="M11.9545 9.99994H16.7272" stroke="white" stroke-width="1.5" stroke-linecap="round"/>
<path d="M7.18178 15.5681H16.7272" stroke="white" stroke-width="1.5" stroke-linecap="round"/>
<path d="M15.1363 6.02267C16.015 6.02267 16.7273 5.31039 16.7273 4.43176C16.7273 3.55313 16.015 2.84085 15.1363 2.84085C14.2577 2.84085 13.5454 3.55313 13.5454 4.43176C13.5454 5.31039 14.2577 6.02267 15.1363 6.02267Z" stroke="white" stroke-width="1.5" stroke-linecap="round"/>
<path d="M10.3637 11.5909C11.2423 11.5909 11.9546 10.8786 11.9546 9.99997C11.9546 9.12133 11.2423 8.40906 10.3637 8.40906C9.48504 8.40906 8.77277 9.12133 8.77277 9.99997C8.77277 10.8786 9.48504 11.5909 10.3637 11.5909Z" stroke="white" stroke-width="1.5" stroke-linecap="round"/>
<path d="M5.59095 17.159C6.46959 17.159 7.18186 16.4467 7.18186 15.5681C7.18186 14.6894 6.46959 13.9772 5.59095 13.9772C4.71232 13.9772 4.00005 14.6894 4.00005 15.5681C4.00005 16.4467 4.71232 17.159 5.59095 17.159Z" stroke="white" stroke-width="1.5" stroke-linecap="round"/>
</svg>
