<svg width="94" height="94" viewBox="0 0 94 94" fill="none" xmlns="http://www.w3.org/2000/svg">
<path d="M78.4412 58.3256C80.7364 56.036 82.1737 54.6904 85.3085 54.6904C88.0737 54.6904 90.5862 55.7954 92.6733 57.2378C87.8415 77.7898 69.3887 93.0901 47.3622 93.0901C26.2665 93.0901 8.44867 79.0558 2.73596 59.8146C6.57686 61.9216 11.5264 63.9994 16.325 63.9994C20.1122 63.9994 23.934 62.7115 27.1483 61.217C29.6255 60.0654 31.908 58.7114 33.7676 57.4934C36.967 61.4613 41.868 63.9994 47.3622 63.9994C50.861 63.9994 54.1196 62.9698 56.8513 61.1969C59.5225 62.7636 62.8333 63.9994 66.6439 63.9994C72.7562 63.9994 75.9809 60.7808 78.343 58.4238L78.4412 58.3256Z" fill="white"/>
<path d="M36.8892 46.5449C36.8892 40.7612 41.5781 36.0723 47.3618 36.0723C53.1455 36.0723 57.8344 40.7612 57.8344 46.5449C57.8344 52.3286 53.1455 57.0175 47.3618 57.0175C41.5781 57.0175 36.8892 52.3286 36.8892 46.5449Z" fill="white"/>
<path fill-rule="evenodd" clip-rule="evenodd" d="M47.3618 29.0906C37.722 29.0906 29.9074 36.9052 29.9074 46.545C29.9074 48.175 30.1308 49.7529 30.5487 51.2493C28.7861 52.4372 26.5706 53.786 24.2044 54.8864C21.3933 56.1934 18.6465 57.0177 16.3246 57.0177C12.788 57.0177 8.43973 55.1247 4.62914 52.8551C3.23316 52.0234 1.98733 51.1893 0.980332 50.4748C0.872022 49.1795 0.816772 47.8688 0.816772 46.545C0.816772 32.5726 6.97347 20.0382 16.722 11.5065C16.7979 11.6 16.8794 11.6904 16.9664 11.7774L21.6209 16.4319C22.9841 17.7952 25.1945 17.7952 26.5577 16.4319C27.921 15.0687 27.921 12.8583 26.5577 11.4951L22.3482 7.2856C29.5726 2.67313 38.1552 0 47.3618 0C61.3342 0 73.8688 6.1567 82.4005 15.9052C82.3069 15.9811 82.2166 16.0626 82.1296 16.1496L77.4751 20.8041C76.1117 22.1674 76.1117 24.3777 77.4751 25.7409C78.8384 27.1042 81.0483 27.1042 82.4116 25.7409L86.6212 21.5315C91.2338 28.7558 93.9068 37.3384 93.9068 46.545C93.9068 47.6393 93.8691 48.7247 93.7947 49.7999C91.3599 48.5763 88.5072 47.7087 85.3081 47.7087C79.1958 47.7087 75.9707 50.9273 73.6086 53.2843L73.5104 53.3825C71.2152 55.6721 69.7779 57.0177 66.6436 57.0177C65.0126 57.0177 63.4645 56.636 62.0272 56.0137C63.7917 53.2862 64.8162 50.035 64.8162 46.545C64.8162 36.9052 57.0018 29.0906 47.3618 29.0906ZM68.0744 11.1708C69.6169 12.3276 69.9292 14.5157 68.7725 16.058L61.7908 25.367C60.6341 26.9094 58.446 27.222 56.9035 26.0652C55.361 24.9084 55.0487 22.7204 56.2054 21.178L63.1871 11.869C64.3438 10.3266 66.5319 10.014 68.0744 11.1708ZM40.239 6.84058C38.8757 8.20384 38.8757 10.4142 40.239 11.7774L44.8935 16.4319C46.2568 17.7952 48.4668 17.7952 49.8301 16.4319C51.1934 15.0687 51.1934 12.8583 49.8301 11.4951L45.1756 6.84058C43.8123 5.47733 41.6023 5.47733 40.239 6.84058ZM30.65 25.8797C31.149 27.742 33.0631 28.8471 34.9254 28.3481L41.2835 26.6444C43.1458 26.1455 44.2512 24.2313 43.7518 22.369C43.2528 20.5068 41.3389 19.4016 39.4766 19.9006L33.1184 21.6043C31.2561 22.1033 30.1509 24.0174 30.65 25.8797ZM69.4777 42.5343C71.4033 42.444 72.8913 40.8093 72.8005 38.8833L72.4915 32.3083C72.4012 30.3825 70.7665 28.8946 68.8405 28.9851C66.9149 29.0757 65.4269 30.7102 65.5176 32.636L65.8267 39.2114C65.917 41.137 67.5517 42.625 69.4777 42.5343ZM79.6701 44.4687C80.9445 45.9157 83.1503 46.0554 84.5969 44.7814L90.0594 40.2517C91.5065 38.9773 91.6462 36.7715 90.3722 35.3246C89.0978 33.8778 86.892 33.7378 85.445 35.012L79.9829 39.5419C78.5358 40.8158 78.3957 43.022 79.6701 44.4687ZM18.9547 24.0807C17.1996 24.8786 16.4235 26.9481 17.2213 28.7033L19.9453 34.6957C20.7431 36.4508 22.8127 37.2269 24.5678 36.429C26.3229 35.6313 27.099 33.5616 26.3012 31.8065L23.5772 25.8141C22.7794 24.0589 20.7098 23.2829 18.9547 24.0807ZM23.8244 41.4013C25.3802 42.5403 25.7183 44.7247 24.5797 46.2802L20.6921 51.5919C19.5534 53.1479 17.3691 53.4858 15.8134 52.3473C14.2575 51.2089 13.9194 49.0245 15.058 47.4685L18.9456 42.1568C20.0843 40.6012 22.2686 40.2629 23.8244 41.4013ZM8.08869 28.806C6.16373 28.9132 4.69016 30.5606 4.7974 32.4856L5.16352 39.0578C5.27076 40.9829 6.91818 42.4565 8.84319 42.349C10.7681 42.242 12.2417 40.5947 12.1345 38.6696L11.7683 32.0973C11.6611 30.1723 10.0137 28.6987 8.08869 28.806Z" fill="white"/>
</svg>
