<svg width="40" height="40" viewBox="0 0 40 40" fill="none" xmlns="http://www.w3.org/2000/svg">
<path d="M26.3673 4.7846C22.7527 3.27358 18.7037 3.09921 14.9663 4.29382C14.5369 4.43116 14.3001 4.89054 14.4373 5.31991C14.5746 5.74937 15.0341 5.98616 15.4634 5.84897C18.8317 4.77226 22.4805 4.92929 25.7376 6.29093C25.8405 6.3339 25.9471 6.35429 26.0521 6.35429C26.3714 6.35429 26.6747 6.16562 26.8055 5.85257C26.9796 5.43663 26.7834 4.95843 26.3673 4.7846Z" fill="#FF4A4C"/>
<path d="M28.7752 6.03526C28.7663 6.02932 28.755 6.02213 28.7459 6.01659C28.3611 5.78151 27.8587 5.90268 27.6237 6.28745C27.3906 6.66901 27.5078 7.16627 27.8851 7.40385C28.0203 7.48971 28.1718 7.53088 28.3216 7.53088C28.5854 7.53088 28.8442 7.4033 29.0016 7.16729C29.2516 6.79221 29.1503 6.28534 28.7752 6.03526Z" fill="#FF4A4C"/>
<path d="M34.9448 12.6472C34.626 12.3284 34.109 12.3284 33.7903 12.6472L32.6474 13.7901C32.3286 14.1089 32.3286 14.6258 32.6474 14.9446C32.8068 15.104 33.0157 15.1837 33.2246 15.1837C33.4334 15.1837 33.6425 15.104 33.8018 14.9446L34.9447 13.8017C35.2636 13.4829 35.2636 12.9659 34.9448 12.6472Z" fill="#FF4A4C"/>
<path d="M6.56249 16.7669C6.24366 16.4481 5.7267 16.4481 5.40795 16.7669L4.26506 17.9098C3.94631 18.2286 3.94631 18.7456 4.26506 19.0643C4.42444 19.2238 4.63342 19.3034 4.84225 19.3034C5.05108 19.3034 5.26014 19.2237 5.4196 19.0643L6.56249 17.9214C6.88131 17.6025 6.88131 17.0856 6.56249 16.7669Z" fill="#FF4A4C"/>
<path d="M9.02397 7.83086C8.70514 7.51211 8.18819 7.51211 7.86944 7.83086L6.72655 8.97375C6.4078 9.29258 6.4078 9.80953 6.72655 10.1283C6.88593 10.2877 7.09491 10.3673 7.30374 10.3673C7.51257 10.3673 7.72155 10.2877 7.88108 10.1283L9.02397 8.98539C9.3428 8.66656 9.3428 8.14961 9.02397 7.83086Z" fill="#FF4A4C"/>
<path d="M11.8222 12.649L10.6802 11.507C10.3614 11.1882 9.84443 11.1881 9.52568 11.507C9.20693 11.8258 9.20693 12.3427 9.52568 12.6615L10.6677 13.8035C10.8271 13.963 11.0361 14.0426 11.2449 14.0426C11.4538 14.0426 11.6628 13.9629 11.8222 13.8035C12.1411 13.4847 12.1411 12.9677 11.8222 12.649Z" fill="#FF4A4C"/>
<path d="M32.1682 17.9095L31.0262 16.7675C30.7074 16.4487 30.1905 16.4488 29.8717 16.7675C29.5529 17.0863 29.553 17.6032 29.8717 17.922L31.0138 19.0639C31.1732 19.2234 31.3821 19.303 31.5909 19.303C31.7998 19.303 32.0088 19.2232 32.1681 19.0639C32.4871 18.7452 32.487 18.2283 32.1682 17.9095Z" fill="#FF4A4C"/>
<path d="M24.8692 9.8911L23.7273 8.74915C23.4084 8.4304 22.8915 8.43032 22.5727 8.74915C22.254 9.06798 22.254 9.58493 22.5727 9.90368L23.7147 11.0456C23.8741 11.2051 24.0831 11.2848 24.2919 11.2848C24.5008 11.2848 24.7097 11.2051 24.8692 11.0456C25.188 10.7268 25.188 10.2099 24.8692 9.8911Z" fill="#FF4A4C"/>
<path d="M15.2496 7.60841C14.9446 7.27637 14.4281 7.25466 14.0962 7.55981L12.9072 8.6527C12.5752 8.95778 12.5535 9.47419 12.8586 9.80606C13.0196 9.98122 13.2393 10.07 13.4598 10.07C13.6573 10.07 13.8554 9.9988 14.012 9.85466L15.2011 8.76177C15.5329 8.45669 15.5547 7.94028 15.2496 7.60841Z" fill="#FF4A4C"/>
<path d="M20.012 11.3469H19.9911C19.9906 11.3469 19.99 11.3469 19.9895 11.3469C19.5393 11.3469 19.1741 11.7113 19.1732 12.1616C19.1723 12.6125 19.5371 12.9786 19.9879 12.9795H20.0089C20.0094 12.9795 20.01 12.9795 20.0105 12.9795C20.4607 12.9795 20.826 12.6152 20.8268 12.1648C20.8276 11.7139 20.4628 11.3477 20.012 11.3469Z" fill="#FF4A4C"/>
<path d="M34.1421 5.85789C30.3647 2.08031 25.3422 0 20 0C14.6578 0 9.63531 2.08031 5.85789 5.85789C2.08039 9.63539 0 14.6578 0 20C0 25.3422 2.08031 30.3647 5.85789 34.1421C9.63539 37.9196 14.6578 40 20 40C25.3422 40 30.3647 37.9197 34.1421 34.1421C37.9196 30.3646 40 25.3422 40 20C40 14.6578 37.9197 9.63531 34.1421 5.85789ZM20 38.3673C12.6363 38.3673 6.27203 34.0109 3.34586 27.7405C3.87562 27.6967 4.37133 27.4703 4.76086 27.0881C5.21055 26.647 5.46844 26.0338 5.46844 25.406V24.6745C5.46844 24.0925 5.9393 23.6101 6.51805 23.5989C6.79625 23.5927 7.06305 23.7022 7.26937 23.9046C7.48578 24.117 7.60992 24.4112 7.60992 24.7118V26.5641C7.60992 28.0292 8.79914 29.2439 10.2609 29.2719C10.2781 29.2722 10.2954 29.2723 10.3127 29.2723C11.0138 29.2723 11.6776 28.999 12.1869 28.4993C12.7143 27.9819 13.0168 27.2629 13.0168 26.5266V25.1036C14.5927 27.2539 17.1358 28.653 19.9999 28.653C24.0787 28.653 27.507 25.8161 28.4163 22.0118C28.5226 22.1462 28.5866 22.3155 28.5866 22.4985V24.512C28.5866 26.049 29.8341 27.3233 31.3676 27.3527C31.3858 27.353 31.4038 27.3532 31.422 27.3532C32.157 27.3532 32.8533 27.0664 33.3877 26.5423C33.9412 25.9992 34.2587 25.2446 34.2587 24.472V22.5301C34.2587 22.309 34.3501 22.0926 34.5095 21.9362C34.66 21.7886 34.8555 21.711 35.0552 21.7132C35.4773 21.7213 35.8209 22.0735 35.8209 22.4984V22.7109C35.8209 23.8366 36.6077 24.7961 37.6588 25.0578C35.4569 32.7341 28.3741 38.3673 20 38.3673ZM37.4535 22.7112V22.4986C37.4535 21.1907 36.3917 20.1061 35.0866 20.0811C34.4432 20.0687 33.8321 20.3138 33.3661 20.7709C32.8957 21.2323 32.626 21.8734 32.626 22.5302V24.4721C32.626 24.8091 32.4868 25.139 32.2443 25.377C32.0123 25.6045 31.7095 25.7255 31.399 25.7205C30.7485 25.708 30.2194 25.1659 30.2194 24.512V22.4985C30.2194 21.4709 29.5638 20.5815 28.6498 20.2352C28.6519 20.157 28.6531 20.0786 28.6531 19.9999C28.6531 16.4015 26.387 13.1415 23.0139 11.8877C22.5912 11.7307 22.1213 11.9459 21.9644 12.3685C21.8073 12.7911 22.0226 13.261 22.4452 13.418C25.1816 14.4353 27.0203 17.0803 27.0203 19.9999C27.0203 23.8709 23.8709 27.0203 19.9999 27.0203C16.1289 27.0203 12.9795 23.8709 12.9795 19.9999C12.9795 17.0802 14.8182 14.4352 17.5549 13.4182C17.9775 13.2612 18.1927 12.7912 18.0357 12.3687C17.8787 11.9462 17.409 11.7308 16.9862 11.8879C13.6131 13.1414 11.3468 16.4014 11.3468 20C11.3468 21.0711 11.543 22.097 11.9003 23.0446C11.5709 23.457 11.3841 23.9737 11.3841 24.514V26.5267C11.3841 26.8273 11.26 27.1216 11.0436 27.3339C10.8372 27.5363 10.572 27.6443 10.2923 27.6396C9.71359 27.6285 9.24273 27.1461 9.24273 26.5641V24.7119C9.24273 23.9756 8.94023 23.2566 8.41281 22.7391C7.89086 22.2271 7.20695 21.9516 6.48687 21.9666C5.02516 21.9945 3.83594 23.2093 3.83594 24.6744V25.4059C3.83594 25.5982 3.75633 25.7865 3.61766 25.9226C3.48734 26.0503 3.32016 26.1184 3.14625 26.1155C2.88266 26.1105 2.64727 25.9484 2.54211 25.7085C1.95281 23.9108 1.63273 21.9922 1.63273 19.9999C1.63266 9.87226 9.87227 1.63266 20 1.63266C30.1277 1.63266 38.3673 9.87227 38.3673 20C38.3673 21.1861 38.253 22.3458 38.0371 23.4698C37.7027 23.3809 37.4535 23.0727 37.4535 22.7112Z" fill="#FF4A4C"/>
</svg>
