<svg width="42" height="42" viewBox="0 0 42 42" fill="none" xmlns="http://www.w3.org/2000/svg">
<path d="M9.88889 9.88889V14.3333M27.6667 5.44444V9.88889M14.3333 5.44444L16.5556 7.66667M34.3333 16.5556L36.5556 18.7778M7.66667 16.5556L5.44444 18.7778M21 9.88889L18.7778 12.1111M32.1111 12.1111L29.8889 14.3333M23.2222 3.22222L21 5.44444M14.3333 32.1111V36.5556M34.3333 23.2222V27.6667M23.2222 34.3333L21 36.5556M27.6667 29.8889L29.8889 32.1111M9.88889 21V25.4444M7.66667 27.6667L5.44444 29.8889M21 27.6667C24.682 27.6667 27.6667 24.682 27.6667 21C27.6667 17.318 24.682 14.3333 21 14.3333C17.318 14.3333 14.3333 17.318 14.3333 21C14.3333 24.682 17.318 27.6667 21 27.6667ZM21 41C32.0458 41 41 32.0458 41 21C41 9.95431 32.0458 1 21 1C9.95431 1 1 9.95431 1 21C1 32.0458 9.95431 41 21 41Z" stroke="#ACA9A7" stroke-width="2"/>
</svg>
