<svg width="40" height="40" viewBox="0 0 40 40" fill="none" xmlns="http://www.w3.org/2000/svg">
<path d="M20.0472 0C31.0665 0.000389701 39.9993 8.93336 39.9993 19.9527C39.9993 25.4623 37.7661 30.4504 34.1556 34.0611C30.5358 37.7284 25.5095 40 19.9527 40C8.93312 40 0 31.0669 0 20.0473C0 14.4905 2.27157 9.46417 5.93671 5.84646L5.93885 5.84435C9.52976 2.23416 14.5008 0 19.9937 0H20.0502H20.0473H20.0472ZM20.0472 38.0916C30.065 38.0916 38.1861 29.9706 38.1861 19.9527C38.1861 9.93485 30.0651 1.81386 20.0472 1.81386C10.0294 1.81386 1.90837 9.93485 1.90837 19.9527C1.91967 29.9659 10.034 38.0802 20.0461 38.0916H20.0472ZM20.0472 13.8581C23.4132 13.8581 26.1419 16.5867 26.1419 19.9527C26.1419 23.3187 23.4132 26.0474 20.0472 26.0474C16.6812 26.0474 13.9526 23.3187 13.9526 19.9527C13.9567 16.5884 16.6829 13.8622 20.0468 13.8581H20.0472ZM20.0472 24.2335C22.4114 24.2335 24.328 22.3169 24.328 19.9527C24.328 17.5885 22.4114 15.672 20.0472 15.672C17.683 15.672 15.7665 17.5885 15.7665 19.9527C15.7696 22.3157 17.6843 24.2304 20.0469 24.2335H20.0473H20.0472ZM32.806 24.0593L31.5236 22.7769L34.9882 19.3124L36.2706 20.5948L32.806 24.0593ZM30.0327 12.1113L26.5682 10.37L27.3843 8.74829L30.8489 10.4897L30.0327 12.1113ZM10.5606 16.4881H8.74673V13.0237H10.5606V16.4881ZM9.01153 25.7825L5.54701 22.318L6.83123 21.0338L10.2958 24.4983L9.01153 25.7825ZM20.0472 34.7177H14.8595V32.9039H20.0472V34.7177ZM27.8831 32.0695H26.0693V28.6049H27.8831V32.0695ZM16.9909 8.64677L16.1746 7.02515L19.6392 5.2838L20.4537 6.90356L16.9909 8.64677Z" fill="#ACA9A7"/>
</svg>
